<svg width="30" height="30" viewBox="0 0 14 14" fill="none" xmlns="http://www.w3.org/2000/svg">
<g clip-path="url(#clip0)">
<path d="M9.16794 4.57721L8.12874 4.53909L7.90344 10.6917L8.94264 10.7297L9.16794 4.57721Z" fill="black"/>
<path d="M7.15791 4.55816H6.11804V10.7108H7.15791V4.55816Z" fill="black"/>
<path d="M5.37217 10.6916L5.14686 4.53891L4.10767 4.57706L4.33299 10.7297L5.37217 10.6916Z" fill="black"/>
<path d="M0.450623 1.99311V3.03298H1.53419L2.3938 12.8015C2.41737 13.0699 2.64218 13.2759 2.91166 13.2759H10.3467C10.6162 13.2759 10.8411 13.0698 10.8645 12.8013L11.7242 3.03298H12.8252V1.99311H0.450623ZM9.87042 12.236H3.38778L2.57805 3.03298H10.6803L9.87042 12.236Z" fill="black"/>
<path d="M8.33646 0H4.9395C4.46167 0 4.07294 0.388734 4.07294 0.866561V2.51305H5.11281V1.03987H8.16314V2.51305H9.20302V0.866561C9.20302 0.388734 8.81428 0 8.33646 0Z" fill="black"/>
</g>
<defs>
<clipPath id="clip0">
<rect width="13.2759" height="13.2759" fill="white"/>
</clipPath>
</defs>
</svg>
