<svg width="30" height="30" viewBox="0 0 14 14" fill="none" xmlns="http://www.w3.org/2000/svg">
<g clip-path="url(#clip0)">
<path d="M10.8204 6.66345C10.5145 6.66345 10.2673 6.9113 10.2673 7.21658V11.6419C10.2673 11.9467 10.0194 12.195 9.71413 12.195H1.96985C1.66447 12.195 1.41672 11.9467 1.41672 11.6419V3.89762C1.41672 3.59284 1.66447 3.34449 1.96985 3.34449H6.39517C6.70105 3.34449 6.9483 3.09664 6.9483 2.79136C6.9483 2.48598 6.70105 2.23813 6.39517 2.23813H1.96985C1.05492 2.23813 0.310364 2.98269 0.310364 3.89762V11.6419C0.310364 12.5568 1.05492 13.3014 1.96985 13.3014H9.71413C10.6291 13.3014 11.3736 12.5568 11.3736 11.6419V7.21658C11.3736 6.91069 11.1263 6.66345 10.8204 6.66345Z" fill="black"/>
<path d="M5.49669 6.15955C5.458 6.19824 5.43197 6.24747 5.42093 6.30054L5.02986 8.2566C5.01163 8.34725 5.04039 8.44073 5.10562 8.50657C5.15819 8.55914 5.22899 8.5873 5.30151 8.5873C5.31913 8.5873 5.33747 8.58568 5.3557 8.58183L7.31114 8.19076C7.36533 8.17962 7.41456 8.15369 7.45274 8.11489L11.8293 3.73829L9.8739 1.78295L5.49669 6.15955Z" fill="black"/>
<path d="M13.1812 0.430469C12.6419 -0.108883 11.7646 -0.108883 11.2257 0.430469L10.4602 1.19599L12.4156 3.15144L13.1812 2.38581C13.4423 2.1253 13.5861 1.77789 13.5861 1.40839C13.5861 1.0389 13.4423 0.691485 13.1812 0.430469Z" fill="black"/>
</g>
<defs>
<clipPath id="clip0">
<rect width="13.2759" height="13.2759" fill="white" transform="translate(0.310303)"/>
</clipPath>
</defs>
</svg>
