<svg width="151" height="84" viewBox="0 0 151 84" fill="none" xmlns="http://www.w3.org/2000/svg">
<path d="M12.519 16.4466C10.769 16.4466 9.62483 17.4696 9.08638 19.5158C8.54793 21.535 8.2787 23.9984 8.2787 26.906C8.2787 30.029 8.68254 32.5059 9.49022 34.3367C10.3248 36.1674 11.8459 37.0828 14.0536 37.0828C15.3728 37.0828 16.5036 36.7462 17.4458 36.0732C18.3881 35.4001 19.1285 34.4309 19.667 33.1655C20.7169 33.6771 21.2419 34.5655 21.2419 35.8309C21.2419 37.1231 20.8246 38.227 19.99 39.1423C19.1554 40.0577 18.0785 40.7442 16.7593 41.2019C15.467 41.6596 14.1074 41.8884 12.6805 41.8884C8.66908 41.8884 5.73451 40.6096 3.87685 38.052C2.0192 35.4943 1.09037 32.0886 1.09037 27.8348C1.09037 23.3926 2.05958 19.9061 3.99801 17.3754C5.93643 14.8178 8.92484 13.5389 12.9632 13.5389C15.4132 13.5389 17.4324 13.9832 19.0208 14.8716C20.6093 15.7601 21.4035 17.2004 21.4035 19.1927C21.4035 20.3773 21.0131 21.333 20.2323 22.0599C19.4785 22.7869 18.5093 23.1503 17.3247 23.1503C16.4362 23.1503 15.7363 23.0022 15.2247 22.7061C15.4132 21.8446 15.5074 21.1311 15.5074 20.5657C15.5074 17.8196 14.5113 16.4466 12.519 16.4466ZM37.428 14.3466L44.2529 41H37.428L35.8934 34.4174H28.4224L26.9282 41H22.0417L29.3916 14.3466H37.428ZM29.1897 31.2271H35.1665L32.1377 18.3042L29.1897 31.2271ZM46.5093 14.3466H53.2131V37.6885H61.2091L60.886 41H46.5093V14.3466ZM73.923 16.4466C72.1731 16.4466 71.0289 17.4696 70.4904 19.5158C69.952 21.535 69.6827 23.9984 69.6827 26.906C69.6827 30.029 70.0866 32.5059 70.8943 34.3367C71.7289 36.1674 73.25 37.0828 75.4576 37.0828C76.7768 37.0828 77.9076 36.7462 78.8499 36.0732C79.7922 35.4001 80.5325 34.4309 81.071 33.1655C82.121 33.6771 82.646 34.5655 82.646 35.8309C82.646 37.1231 82.2287 38.227 81.3941 39.1423C80.5595 40.0577 79.4826 40.7442 78.1634 41.2019C76.8711 41.6596 75.5115 41.8884 74.0846 41.8884C70.0731 41.8884 67.1386 40.6096 65.2809 38.052C63.4232 35.4943 62.4944 32.0886 62.4944 27.8348C62.4944 23.3926 63.4636 19.9061 65.402 17.3754C67.3405 14.8178 70.3289 13.5389 74.3673 13.5389C76.8172 13.5389 78.8364 13.9832 80.4249 14.8716C82.0133 15.7601 82.8075 17.2004 82.8075 19.1927C82.8075 20.3773 82.4171 21.333 81.6364 22.0599C80.8825 22.7869 79.9133 23.1503 78.7287 23.1503C77.8403 23.1503 77.1403 23.0022 76.6288 22.7061C76.8172 21.8446 76.9115 21.1311 76.9115 20.5657C76.9115 17.8196 75.9153 16.4466 73.923 16.4466ZM105.011 29.9348C105.011 32.6271 104.728 34.8482 104.163 36.5982C103.624 38.3212 102.655 39.6404 101.255 40.5558C99.882 41.4442 97.9705 41.8884 95.5206 41.8884C91.9398 41.8884 89.3822 41.0404 87.8476 39.3443C86.313 37.6481 85.5457 34.9559 85.5457 31.2675V14.3466H92.2495V30.8233C92.2495 32.6271 92.3302 34.0809 92.4918 35.1847C92.6533 36.2885 93.0167 37.1635 93.5821 37.8097C94.1475 38.4558 94.9821 38.7789 96.0859 38.7789C97.2167 38.7789 98.0513 38.4424 98.5897 37.7693C99.1551 37.0693 99.5186 36.1405 99.6801 34.9828C99.8416 33.8251 99.9224 32.2905 99.9224 30.379V14.3466H105.011V29.9348ZM109.215 14.3466H115.919V37.6885H123.915L123.591 41H109.215V14.3466ZM139.334 14.3466L146.159 41H139.334L137.8 34.4174H130.329L128.834 41H123.948L131.298 14.3466H139.334ZM131.096 31.2271H137.073L134.044 18.3042L131.096 31.2271Z" fill="black"/>
<path d="M12.519 51.5168C10.769 51.5168 9.62483 52.5399 9.08638 54.586C8.54793 56.6052 8.2787 59.0686 8.2787 61.9762C8.2787 65.0993 8.68254 67.5761 9.49022 69.4069C10.3248 71.2376 11.8459 72.153 14.0536 72.153C15.3728 72.153 16.5036 71.8164 17.4458 71.1434C18.3881 70.4703 19.1285 69.5011 19.667 68.2357C20.7169 68.7473 21.2419 69.6357 21.2419 70.9011C21.2419 72.1934 20.8246 73.2972 19.99 74.2126C19.1554 75.1279 18.0785 75.8145 16.7593 76.2721C15.467 76.7298 14.1074 76.9587 12.6805 76.9587C8.66908 76.9587 5.73451 75.6798 3.87685 73.1222C2.0192 70.5645 1.09037 67.1588 1.09037 62.9051C1.09037 58.4628 2.05958 54.9764 3.99801 52.4456C5.93643 49.888 8.92484 48.6092 12.9632 48.6092C15.4132 48.6092 17.4324 49.0534 19.0208 49.9418C20.6093 50.8303 21.4035 52.2706 21.4035 54.2629C21.4035 55.4475 21.0131 56.4033 20.2323 57.1302C19.4785 57.8571 18.5093 58.2205 17.3247 58.2205C16.4362 58.2205 15.7363 58.0725 15.2247 57.7763C15.4132 56.9148 15.5074 56.2013 15.5074 55.636C15.5074 52.8899 14.5113 51.5168 12.519 51.5168ZM34.8434 48.6092C38.828 48.6092 41.7491 49.8207 43.6067 52.2437C45.4644 54.6668 46.3932 58.0455 46.3932 62.3801C46.3932 66.8223 45.4509 70.3626 43.5663 73.001C41.7087 75.6395 38.801 76.9587 34.8434 76.9587C30.9396 76.9587 28.032 75.6933 26.1205 73.1626C24.2359 70.6319 23.2936 67.2127 23.2936 62.9051C23.2936 58.5167 24.2225 55.0437 26.0801 52.486C27.9647 49.9015 30.8858 48.6092 34.8434 48.6092ZM34.8434 74.051C36.6472 74.051 37.8184 72.9876 38.3568 70.8607C38.8953 68.7069 39.1645 65.9608 39.1645 62.6224C39.1645 59.4186 38.8818 56.7667 38.3164 54.6668C37.778 52.5668 36.6203 51.5168 34.8434 51.5168C33.0665 51.5168 31.8954 52.5802 31.33 54.7071C30.7646 56.8071 30.482 59.4455 30.482 62.6224C30.482 65.9339 30.7512 68.6665 31.2896 70.8203C31.855 72.9741 33.0396 74.051 34.8434 74.051ZM63.3939 76.0702L53.9037 57.0494V76.0702H49.7038V49.4168H56.569L66.0592 68.4377V49.4168H70.2188V76.0702H63.3939ZM91.0231 49.4168L90.7404 52.6072H84.9655V76.0702H78.2618V52.6072H72.285V49.4168H91.0231ZM106.01 49.4168L112.835 76.0702H106.01L104.475 69.4876H97.004L95.5098 76.0702H90.6234L97.9732 49.4168H106.01ZM97.7713 66.2973H103.748L100.719 53.3745L97.7713 66.2973Z" fill="black"/>
<g clip-path="url(#clip0)">
<path d="M134.756 44.696C125.793 44.696 118.384 51.9773 118.384 60.9403C118.384 69.9033 125.793 77.312 134.756 77.312C143.719 77.312 151 69.9033 151 60.9403C151 51.9773 143.719 44.696 134.756 44.696Z" fill="#FEDB41"/>
<path d="M151 60.9403C151 69.9033 143.719 77.312 134.756 77.312V44.696C143.719 44.696 151 51.9773 151 60.9403Z" fill="#FFCC33"/>
<path d="M134.756 48.5182C127.914 48.5182 122.206 54.0985 122.206 60.9403C122.206 67.7821 127.914 73.4898 134.756 73.4898C141.598 73.4898 147.178 67.7821 147.178 60.9403C147.178 54.0985 141.598 48.5182 134.756 48.5182Z" fill="#FEA832"/>
<path d="M147.178 60.9403C147.178 67.7821 141.598 73.4898 134.756 73.4898V48.5182C141.598 48.5182 147.178 54.0985 147.178 60.9403Z" fill="#FE9923"/>
<path d="M136.667 59.9848H135.711V56.1626H136.667C137.202 56.1626 137.622 56.583 137.622 57.1181C137.622 58.3794 139.533 58.3794 139.533 57.1181C139.533 55.5319 138.253 54.2515 136.667 54.2515H135.711V53.2959C135.711 52.6652 135.233 52.3404 134.756 52.3404C134.278 52.3404 133.8 52.6652 133.8 53.2959V54.2515H132.717C131.131 54.2515 129.851 55.5319 129.851 57.1181V59.0292C129.851 60.6155 131.131 61.8959 132.717 61.8959H133.8V65.8455H132.717C132.182 65.8455 131.762 65.4251 131.762 64.8899C131.762 63.6286 129.851 63.6286 129.851 64.8899C129.851 66.4762 131.131 67.7565 132.717 67.7565H133.8V68.7121C133.8 69.3428 134.278 69.6676 134.756 69.6676C135.233 69.6676 135.711 69.3428 135.711 68.7121V67.7565H136.667C138.253 67.7565 139.533 66.4762 139.533 64.8899V62.8514C139.533 61.2651 138.253 59.9848 136.667 59.9848ZM133.8 59.9848H132.717C132.182 59.9848 131.762 59.5644 131.762 59.0292V57.1181C131.762 56.583 132.182 56.1626 132.717 56.1626H133.8V59.9848ZM137.622 64.8899C137.622 65.4251 137.202 65.8455 136.667 65.8455H135.711V61.8959H136.667C137.202 61.8959 137.622 62.3162 137.622 62.8514V64.8899Z" fill="#FEDB41"/>
<path d="M136.667 59.9848H135.711V56.1626H136.667C137.202 56.1626 137.622 56.583 137.622 57.1181C137.622 58.3794 139.533 58.3794 139.533 57.1181C139.533 55.5319 138.253 54.2515 136.667 54.2515H135.711V53.2959C135.711 52.6652 135.234 52.3404 134.756 52.3404V69.6676C135.234 69.6676 135.711 69.3428 135.711 68.7121V67.7565H136.667C138.253 67.7565 139.533 66.4762 139.533 64.8899V62.8514C139.533 61.2651 138.253 59.9848 136.667 59.9848ZM137.622 64.8899C137.622 65.4251 137.202 65.8455 136.667 65.8455H135.711V61.8959H136.667C137.202 61.8959 137.622 62.3162 137.622 62.8514V64.8899Z" fill="#FFCC33"/>
</g>
<defs>
<clipPath id="clip0">
<rect width="32.616" height="32.616" fill="white" transform="translate(118.384 44.696)"/>
</clipPath>
</defs>
</svg>
